<?xml version="1.0" encoding="iso-8859-1"?>
<!-- Uploaded to: SVG Repo, www.svgrepo.com, Generator: SVG Repo Mixer Tools -->
<svg height="800px" width="800px" version="1.1" id="Layer_1" xmlns="http://www.w3.org/2000/svg" xmlns:xlink="http://www.w3.org/1999/xlink" 
	 viewBox="0 0 512 512" xml:space="preserve">
<path style="fill:#B1C6E4;" d="M307.319,409.6h-102.4c-9.422,0-17.067,7.639-17.067,17.067v17.067
	c0,37.645,30.622,68.267,68.267,68.267s68.267-30.622,68.267-68.267v-17.067C324.385,417.239,316.742,409.6,307.319,409.6z"/>
<path style="fill:#9DB0CA;" d="M307.319,409.6h-51.2V512c37.645,0,68.267-30.622,68.267-68.267v-17.067
	C324.385,417.239,316.742,409.6,307.319,409.6z"/>
<path style="fill:#C5DCFD;" d="M307.319,443.733h-102.4c-28.233,0-51.2-22.967-51.2-51.2c0-28.233,22.967-51.2,51.2-51.2h102.4
	c28.233,0,51.2,22.967,51.2,51.2C358.519,420.766,335.553,443.733,307.319,443.733z"/>
<path style="fill:#B1C6E4;" d="M307.319,341.333h-51.2v102.4h51.2c28.233,0,51.2-22.967,51.2-51.2
	C358.519,364.301,335.553,341.333,307.319,341.333z"/>
<path style="fill:#F6DF5A;" d="M409.719,153.6c0,29.696-6.485,45.739-17.18,72.135c-7.054,17.408-16.725,41.188-28.331,78.848
	H147.916c-10.24-33.109-19.342-56.434-26.738-75.093c-14.45-36.636-23.211-58.709-16.725-100.238
	c10.24-66.446,66.219-120.263,133.12-128.114C243.717,0.342,249.975,0,256.119,0c37.433,0,73.956,13.767,102.059,38.798
	C390.945,67.925,409.719,109.796,409.719,153.6z"/>
<path style="fill:#F0CA45;" d="M409.719,153.6c0,29.696-6.485,45.739-17.18,72.135c-7.054,17.408-16.725,41.188-28.331,78.848
	H256.119V0c37.433,0,73.956,13.767,102.059,38.798C390.945,67.925,409.719,109.796,409.719,153.6z"/>
<path style="fill:#E4A738;" d="M290.252,238.933c-9.422,0-17.067-7.639-17.067-17.067c0-26.577,10.345-51.556,29.133-70.339
	l10-9.994c6.666-6.666,17.467-6.666,24.133,0c6.666,6.661,6.666,17.472,0,24.133l-10,10c-12.334,12.339-19.133,28.745-19.133,46.199
	C307.319,231.294,299.675,238.933,290.252,238.933z"/>
<g>
	<path style="fill:#EFBE44;" d="M221.985,238.933c-9.422,0-17.067-7.639-17.067-17.067c0-17.456-6.801-33.861-19.133-46.195
		l-10-10.006c-6.666-6.661-6.666-17.472,0-24.133c6.666-6.666,17.467-6.666,24.133,0l10,10
		c18.789,18.778,29.133,43.756,29.133,70.333C239.052,231.294,231.408,238.933,221.985,238.933z"/>
	<path style="fill:#EFBE44;" d="M290.252,204.8h-68.267c-9.422,0-17.067,7.639-17.067,17.067v68.267
		c0,9.428,7.645,17.067,17.067,17.067h68.267c9.422,0,17.067-7.639,17.067-17.067v-68.267
		C307.319,212.439,299.675,204.8,290.252,204.8z M273.185,273.067h-34.133v-34.133h34.133V273.067z"/>
</g>
<path style="fill:#E4A738;" d="M290.252,204.8h-34.133v34.133h17.067v34.133h-17.067V307.2h34.133
	c9.422,0,17.067-7.639,17.067-17.067v-68.267C307.319,212.439,299.675,204.8,290.252,204.8z"/>
<path style="fill:#DBE9FD;" d="M324.385,375.467H187.852c-28.233,0-51.2-22.967-51.2-51.2c0-28.233,22.967-51.2,51.2-51.2h136.533
	c28.233,0,51.2,22.967,51.2,51.2C375.585,352.499,352.619,375.467,324.385,375.467z"/>
<path style="fill:#C5DCFD;" d="M324.385,273.067h-68.267v102.4h68.267c28.233,0,51.2-22.967,51.2-51.2
	C375.585,296.034,352.619,273.067,324.385,273.067z"/>
</svg>