<?xml version="1.0" encoding="utf-8"?><!-- Uploaded to: SVG Repo, www.svgrepo.com, Generator: SVG Repo Mixer Tools -->
<svg width="800px" height="800px" viewBox="0 0 24 24" fill="none" xmlns="http://www.w3.org/2000/svg">
<path fill-rule="evenodd" clip-rule="evenodd" d="M12 7C10.8181 7 9.64778 7.23279 8.55585 7.68508C7.46392 8.13738 6.47177 8.80031 5.63604 9.63604C4.80031 10.4718 4.13738 11.4639 3.68508 12.5558C3.23279 13.6478 3 14.8181 3 16H2C2 14.6868 2.25866 13.3864 2.7612 12.1732C3.26375 10.9599 4.00035 9.85752 4.92893 8.92893C5.85752 8.00035 6.95991 7.26375 8.17317 6.7612C9.38642 6.25866 10.6868 6 12 6C13.3132 6 14.6136 6.25866 15.8268 6.7612C17.0401 7.26375 18.1425 8.00035 19.0711 8.92893C19.9997 9.85752 20.7362 10.9599 21.2388 12.1732C21.7413 13.3864 22 14.6868 22 16H21C21 14.8181 20.7672 13.6478 20.3149 12.5558C19.8626 11.4639 19.1997 10.4718 18.364 9.63604C17.5282 8.80031 16.5361 8.13738 15.4442 7.68508C14.3522 7.23279 13.1819 7 12 7Z" fill="#FF575B"/>
<path fill-rule="evenodd" clip-rule="evenodd" d="M12 8C10.9494 8 9.90914 8.20693 8.93853 8.60896C7.96793 9.011 7.08601 9.60028 6.34315 10.3431C5.60028 11.086 5.011 11.9679 4.60896 12.9385C4.20693 13.9091 4 14.9494 4 16H3C3 14.8181 3.23279 13.6478 3.68508 12.5558C4.13738 11.4639 4.80031 10.4718 5.63604 9.63604C6.47177 8.80031 7.46392 8.13738 8.55585 7.68508C9.64778 7.23279 10.8181 7 12 7C13.1819 7 14.3522 7.23279 15.4442 7.68508C16.5361 8.13738 17.5282 8.80031 18.364 9.63604C19.1997 10.4718 19.8626 11.4639 20.3149 12.5558C20.7672 13.6478 21 14.8181 21 16H20C20 14.9494 19.7931 13.9091 19.391 12.9385C18.989 11.9679 18.3997 11.086 17.6569 10.3431C16.914 9.60028 16.0321 9.011 15.0615 8.60896C14.0909 8.20693 13.0506 8 12 8Z" fill="#FF8353"/>
<path fill-rule="evenodd" clip-rule="evenodd" d="M12 9C11.0807 9 10.1705 9.18106 9.32122 9.53284C8.47194 9.88463 7.70026 10.4002 7.05025 11.0503C6.40024 11.7003 5.88463 12.4719 5.53284 13.3212C5.18106 14.1705 5 15.0807 5 16H4C4 14.9494 4.20693 13.9091 4.60896 12.9385C5.011 11.9679 5.60028 11.086 6.34315 10.3431C7.08601 9.60028 7.96793 9.011 8.93853 8.60896C9.90914 8.20693 10.9494 8 12 8C13.0506 8 14.0909 8.20693 15.0615 8.60896C16.0321 9.011 16.914 9.60028 17.6569 10.3431C18.3997 11.086 18.989 11.9679 19.391 12.9385C19.7931 13.9091 20 14.9494 20 16H19C19 15.0807 18.8189 14.1705 18.4672 13.3212C18.1154 12.4719 17.5998 11.7003 16.9497 11.0503C16.2997 10.4002 15.5281 9.88463 14.6788 9.53284C13.8295 9.18106 12.9193 9 12 9Z" fill="#FABA2C"/>
<path fill-rule="evenodd" clip-rule="evenodd" d="M12 10C11.2121 10 10.4319 10.1552 9.7039 10.4567C8.97595 10.7583 8.31451 11.2002 7.75736 11.7574C7.20021 12.3145 6.75825 12.9759 6.45672 13.7039C6.15519 14.4319 6 15.2121 6 16H5C5 15.0807 5.18106 14.1705 5.53284 13.3212C5.88463 12.4719 6.40024 11.7003 7.05025 11.0503C7.70026 10.4002 8.47194 9.88463 9.32122 9.53284C10.1705 9.18106 11.0807 9 12 9C12.9193 9 13.8295 9.18106 14.6788 9.53284C15.5281 9.88463 16.2997 10.4002 16.9497 11.0503C17.5998 11.7003 18.1154 12.4719 18.4672 13.3212C18.8189 14.1705 19 15.0807 19 16H18C18 15.2121 17.8448 14.4319 17.5433 13.7039C17.2417 12.9759 16.7998 12.3145 16.2426 11.7574C15.6855 11.2002 15.0241 10.7583 14.2961 10.4567C13.5681 10.1552 12.7879 10 12 10Z" fill="#7AC74D"/>
<path fill-rule="evenodd" clip-rule="evenodd" d="M12 11C11.3434 11 10.6932 11.1293 10.0866 11.3806C9.47995 11.6319 8.92876 12.0002 8.46447 12.4645C8.00017 12.9288 7.63188 13.48 7.3806 14.0866C7.12933 14.6932 7 15.3434 7 16H6C6 15.2121 6.15519 14.4319 6.45672 13.7039C6.75825 12.9759 7.20021 12.3145 7.75736 11.7574C8.31451 11.2002 8.97595 10.7583 9.7039 10.4567C10.4319 10.1552 11.2121 10 12 10C12.7879 10 13.5681 10.1552 14.2961 10.4567C15.0241 10.7583 15.6855 11.2002 16.2426 11.7574C16.7998 12.3145 17.2417 12.9759 17.5433 13.7039C17.8448 14.4319 18 15.2121 18 16H17C17 15.3434 16.8707 14.6932 16.6194 14.0866C16.3681 13.48 15.9998 12.9288 15.5355 12.4645C15.0712 12.0002 14.52 11.6319 13.9134 11.3806C13.3068 11.1293 12.6566 11 12 11Z" fill="#00B0FF"/>
<path fill-rule="evenodd" clip-rule="evenodd" d="M12 12C11.4747 12 10.9546 12.1035 10.4693 12.3045C9.98396 12.5055 9.54301 12.8001 9.17157 13.1716C8.80014 13.543 8.5055 13.984 8.30448 14.4693C8.10346 14.9546 8 15.4747 8 16H7C7 15.3434 7.12933 14.6932 7.3806 14.0866C7.63188 13.48 8.00017 12.9288 8.46447 12.4645C8.92876 12.0002 9.47995 11.6319 10.0866 11.3806C10.6932 11.1293 11.3434 11 12 11C12.6566 11 13.3068 11.1293 13.9134 11.3806C14.52 11.6319 15.0712 12.0002 15.5355 12.4645C15.9998 12.9288 16.3681 13.48 16.6194 14.0866C16.8707 14.6932 17 15.3434 17 16H16C16 15.4747 15.8965 14.9546 15.6955 14.4693C15.4945 13.984 15.1999 13.543 14.8284 13.1716C14.457 12.8001 14.016 12.5055 13.5307 12.3045C13.0454 12.1035 12.5253 12 12 12Z" fill="#B99FE4"/>
<path fill-rule="evenodd" clip-rule="evenodd" d="M12 13C11.606 13 11.2159 13.0776 10.8519 13.2284C10.488 13.3791 10.1573 13.6001 9.87868 13.8787C9.6001 14.1573 9.37913 14.488 9.22836 14.8519C9.0776 15.2159 9 15.606 9 16H8C8 15.4747 8.10346 14.9546 8.30448 14.4693C8.5055 13.984 8.80014 13.543 9.17157 13.1716C9.54301 12.8001 9.98396 12.5055 10.4693 12.3045C10.9546 12.1035 11.4747 12 12 12C12.5253 12 13.0454 12.1035 13.5307 12.3045C14.016 12.5055 14.457 12.8001 14.8284 13.1716C15.1999 13.543 15.4945 13.984 15.6955 14.4693C15.8965 14.9546 16 15.4747 16 16H15C15 15.606 14.9224 15.2159 14.7716 14.8519C14.6209 14.488 14.3999 14.1573 14.1213 13.8787C13.8427 13.6001 13.512 13.3791 13.1481 13.2284C12.7841 13.0776 12.394 13 12 13Z" fill="#E39BD1"/>
</svg>