<?xml version="1.0" encoding="utf-8"?>
<svg width="512px" height="209px" fill="none" xmlns="http://www.w3.org/2000/svg" preserveAspectRatio="xMidYMin" viewBox="0 0 24 11">
  <path fill-rule="evenodd" clip-rule="evenodd" d="M 11.985 1.584 C 10.804 1.584 9.633 1.817 8.541 2.269 C 7.449 2.722 6.457 3.385 5.621 4.22 C 4.786 5.056 4.123 6.048 3.671 7.14 C 3.218 8.232 2.985 9.402 2.985 10.584 L 1.985 10.584 C 1.985 9.271 2.244 7.971 2.747 6.757 C 3.249 5.544 3.986 4.442 4.914 3.513 C 5.843 2.585 6.945 1.848 8.159 1.345 C 9.372 0.843 10.672 0.584 11.985 0.584 C 13.299 0.584 14.599 0.843 15.812 1.345 C 17.026 1.848 18.128 2.585 19.057 3.513 C 19.985 4.442 20.722 5.544 21.224 6.757 C 21.727 7.971 21.985 9.271 21.985 10.584 L 20.985 10.584 C 20.985 9.402 20.753 8.232 20.3 7.14 C 19.848 6.048 19.185 5.056 18.349 4.22 C 17.514 3.385 16.522 2.722 15.43 2.269 C 14.338 1.817 13.167 1.584 11.985 1.584 Z" fill="#FF575B"/>
  <path fill-rule="evenodd" clip-rule="evenodd" d="M 11.985 2.584 C 10.935 2.584 9.895 2.791 8.924 3.193 C 7.953 3.595 7.071 4.185 6.329 4.927 C 5.586 5.67 4.996 6.552 4.594 7.523 C 4.192 8.493 3.985 9.534 3.985 10.584 L 2.985 10.584 C 2.985 9.402 3.218 8.232 3.671 7.14 C 4.123 6.048 4.786 5.056 5.621 4.22 C 6.457 3.385 7.449 2.722 8.541 2.269 C 9.633 1.817 10.804 1.584 11.985 1.584 C 13.167 1.584 14.338 1.817 15.43 2.269 C 16.522 2.722 17.514 3.385 18.349 4.22 C 19.185 5.056 19.848 6.048 20.3 7.14 C 20.753 8.232 20.985 9.402 20.985 10.584 L 19.985 10.584 C 19.985 9.534 19.779 8.493 19.376 7.523 C 18.974 6.552 18.385 5.67 17.642 4.927 C 16.899 4.185 16.018 3.595 15.047 3.193 C 14.076 2.791 13.036 2.584 11.985 2.584 Z" fill="#FF8353"/>
  <path fill-rule="evenodd" clip-rule="evenodd" d="M 11.985 3.584 C 11.066 3.584 10.156 3.765 9.307 4.117 C 8.457 4.469 7.686 4.984 7.036 5.635 C 6.386 6.285 5.87 7.056 5.518 7.905 C 5.166 8.755 4.985 9.665 4.985 10.584 L 3.985 10.584 C 3.985 9.534 4.192 8.493 4.594 7.523 C 4.996 6.552 5.586 5.67 6.329 4.927 C 7.071 4.185 7.953 3.595 8.924 3.193 C 9.895 2.791 10.935 2.584 11.985 2.584 C 13.036 2.584 14.076 2.791 15.047 3.193 C 16.018 3.595 16.899 4.185 17.642 4.927 C 18.385 5.67 18.974 6.552 19.376 7.523 C 19.779 8.493 19.985 9.534 19.985 10.584 L 18.985 10.584 C 18.985 9.665 18.804 8.755 18.453 7.905 C 18.101 7.056 17.585 6.285 16.935 5.635 C 16.285 4.984 15.514 4.469 14.664 4.117 C 13.815 3.765 12.905 3.584 11.985 3.584 Z" fill="#FABA2C"/>
  <path fill-rule="evenodd" clip-rule="evenodd" d="M 11.985 4.584 C 11.198 4.584 10.417 4.739 9.689 5.041 C 8.961 5.343 8.3 5.784 7.743 6.342 C 7.186 6.899 6.744 7.56 6.442 8.288 C 6.141 9.016 5.985 9.796 5.985 10.584 L 4.985 10.584 C 4.985 9.665 5.166 8.755 5.518 7.905 C 5.87 7.056 6.386 6.285 7.036 5.635 C 7.686 4.984 8.457 4.469 9.307 4.117 C 10.156 3.765 11.066 3.584 11.985 3.584 C 12.905 3.584 13.815 3.765 14.664 4.117 C 15.514 4.469 16.285 4.984 16.935 5.635 C 17.585 6.285 18.101 7.056 18.453 7.905 C 18.804 8.755 18.985 9.665 18.985 10.584 L 17.985 10.584 C 17.985 9.796 17.83 9.016 17.529 8.288 C 17.227 7.56 16.785 6.899 16.228 6.342 C 15.671 5.784 15.01 5.343 14.282 5.041 C 13.554 4.739 12.773 4.584 11.985 4.584 Z" fill="#7AC74D"/>
  <path fill-rule="evenodd" clip-rule="evenodd" d="M 11.985 5.584 C 11.329 5.584 10.679 5.714 10.072 5.965 C 9.465 6.216 8.914 6.584 8.45 7.049 C 7.986 7.513 7.617 8.064 7.366 8.671 C 7.115 9.277 6.985 9.928 6.985 10.584 L 5.985 10.584 C 5.985 9.796 6.141 9.016 6.442 8.288 C 6.744 7.56 7.186 6.899 7.743 6.342 C 8.3 5.784 8.961 5.343 9.689 5.041 C 10.417 4.739 11.198 4.584 11.985 4.584 C 12.773 4.584 13.554 4.739 14.282 5.041 C 15.01 5.343 15.671 5.784 16.228 6.342 C 16.785 6.899 17.227 7.56 17.529 8.288 C 17.83 9.016 17.985 9.796 17.985 10.584 L 16.985 10.584 C 16.985 9.928 16.856 9.277 16.605 8.671 C 16.354 8.064 15.985 7.513 15.521 7.049 C 15.057 6.584 14.505 6.216 13.899 5.965 C 13.292 5.714 12.642 5.584 11.985 5.584 Z" fill="#00B0FF"/>
  <path fill-rule="evenodd" clip-rule="evenodd" d="M 11.985 6.584 C 11.46 6.584 10.94 6.688 10.455 6.889 C 9.969 7.09 9.528 7.384 9.157 7.756 C 8.786 8.127 8.491 8.568 8.29 9.054 C 8.089 9.539 7.985 10.059 7.985 10.584 L 6.985 10.584 C 6.985 9.928 7.115 9.277 7.366 8.671 C 7.617 8.064 7.986 7.513 8.45 7.049 C 8.914 6.584 9.465 6.216 10.072 5.965 C 10.679 5.714 11.329 5.584 11.985 5.584 C 12.642 5.584 13.292 5.714 13.899 5.965 C 14.505 6.216 15.057 6.584 15.521 7.049 C 15.985 7.513 16.354 8.064 16.605 8.671 C 16.856 9.277 16.985 9.928 16.985 10.584 L 15.985 10.584 C 15.985 10.059 15.882 9.539 15.681 9.054 C 15.48 8.568 15.185 8.127 14.814 7.756 C 14.442 7.384 14.001 7.09 13.516 6.889 C 13.031 6.688 12.511 6.584 11.985 6.584 Z" fill="#B99FE4"/>
  <path fill-rule="evenodd" clip-rule="evenodd" d="M 11.985 7.584 C 11.591 7.584 11.201 7.662 10.837 7.813 C 10.473 7.963 10.143 8.184 9.864 8.463 C 9.586 8.742 9.365 9.072 9.214 9.436 C 9.063 9.8 8.985 10.19 8.985 10.584 L 7.985 10.584 C 7.985 10.059 8.089 9.539 8.29 9.054 C 8.491 8.568 8.786 8.127 9.157 7.756 C 9.528 7.384 9.969 7.09 10.455 6.889 C 10.94 6.688 11.46 6.584 11.985 6.584 C 12.511 6.584 13.031 6.688 13.516 6.889 C 14.001 7.09 14.442 7.384 14.814 7.756 C 15.185 8.127 15.48 8.568 15.681 9.054 C 15.882 9.539 15.985 10.059 15.985 10.584 L 14.985 10.584 C 14.985 10.19 14.908 9.8 14.757 9.436 C 14.606 9.072 14.385 8.742 14.107 8.463 C 13.828 8.184 13.497 7.963 13.134 7.813 C 12.77 7.662 12.379 7.584 11.985 7.584 Z" fill="#E39BD1"/>
</svg>