<?xml version="1.0" encoding="utf-8"?>
<svg height="512px" width="512px" version="1.1" id="Capa_1" xmlns="http://www.w3.org/2000/svg" viewBox="0 0 60 60">
  <rect x="21.725" y="46.472" style="fill: rgb(102, 102, 102); stroke-width: 1;" width="16.367" height="8.863" id="object-0"/>
  <polygon style="fill: rgb(51, 51, 51); stroke-width: 1;" points="22.57 47.201 32.308 47.201 22.57 53.894" id="object-1"/>
  <g id="object-2" style="" transform="matrix(0.113613, 0, 0, 0.108562, 0.823751, 5.558123)">
    <path style="fill:#D6D6D6;" d="M369.521,487.281H142.496c-8.826-0.026-15.974-7.174-16-16l0,0c0.026-8.826,7.174-15.974,16-16 h227.008c8.826,0.026,15.974,7.174,16,16l0,0C385.505,480.111,378.35,487.273,369.521,487.281z"/>
    <path style="fill:#D6D6D6;" d="M480.001,376.721H32c-17.652-0.052-31.948-14.349-32-32v-288c0.052-17.652,14.349-31.947,32-32h448 c17.651,0.052,31.947,14.349,32,32v288C511.948,362.372,497.651,376.669,480.001,376.721z"/>
  </g>
  <rect x="3.319" y="10.774" width="53.182" height="33.024" id="object-3" style="fill: rgb(242, 242, 242); stroke-width: 1;"/>
  <path style="fill: rgb(230, 76, 60); stroke-width: 1;" d="M 8.894 41.823 C 8.879 41.466 8.87 41.109 8.87 40.749 C 8.87 27.723 18.27 17.125 29.828 17.125 C 41.383 17.125 50.786 27.722 50.786 40.749 C 50.786 41.109 50.776 41.466 50.762 41.823 L 54.573 41.823 C 54.583 41.465 54.595 41.109 54.595 40.749 C 54.595 25.33 43.506 12.833 29.827 12.833 C 16.147 12.833 5.058 25.33 5.058 40.749 C 5.058 41.109 5.071 41.465 5.081 41.823 L 8.894 41.823 Z"/>
  <path style="fill: rgb(240, 196, 25); stroke-width: 1;" d="M 12.727 41.835 C 12.71 41.477 12.68 41.123 12.68 40.76 C 12.68 30.095 20.371 21.416 29.827 21.416 C 39.282 21.416 46.974 30.095 46.974 40.76 C 46.974 41.122 46.943 41.477 46.926 41.835 L 50.76 41.835 C 50.775 41.478 50.786 41.12 50.786 40.76 C 50.786 27.725 41.383 17.116 29.827 17.116 C 18.269 17.116 8.868 27.725 8.868 40.76 C 8.868 41.12 8.879 41.478 8.894 41.835 L 12.727 41.835 Z"/>
  <path style="fill: rgb(113, 194, 133); stroke-width: 1;" d="M 16.539 41.835 C 16.516 41.478 16.49 41.123 16.49 40.76 C 16.49 32.465 22.473 25.716 29.828 25.716 C 37.182 25.716 43.164 32.464 43.164 40.76 C 43.164 41.122 43.139 41.478 43.116 41.835 L 46.926 41.835 C 46.943 41.477 46.975 41.123 46.975 40.76 C 46.975 30.095 39.282 21.416 29.828 21.416 C 20.372 21.416 12.68 30.095 12.68 40.76 C 12.68 41.122 12.71 41.477 12.727 41.835 L 16.539 41.835 Z"/>
  <path style="fill: rgb(0, 150, 230); stroke-width: 1;" d="M 20.348 41.835 C 20.317 41.481 20.3 41.123 20.3 40.76 C 20.3 34.834 24.574 30.015 29.827 30.015 C 35.079 30.015 39.352 34.835 39.352 40.76 C 39.352 41.122 39.336 41.481 39.304 41.835 L 43.115 41.835 C 43.136 41.478 43.163 41.123 43.163 40.76 C 43.163 32.465 37.18 25.716 29.826 25.716 C 22.471 25.716 16.489 32.464 16.489 40.76 C 16.489 41.122 16.515 41.478 16.538 41.835 L 20.348 41.835 Z"/>
  <path style="fill: rgb(84, 106, 121); stroke-width: 1;" d="M 24.196 41.835 C 24.144 41.484 24.11 41.126 24.11 40.76 C 24.11 37.205 26.673 34.313 29.827 34.313 C 32.978 34.313 35.541 37.205 35.541 40.76 C 35.541 41.126 35.507 41.484 35.457 41.835 L 39.304 41.835 C 39.336 41.481 39.352 41.123 39.352 40.76 C 39.352 34.834 35.079 30.015 29.827 30.015 C 24.574 30.015 20.3 34.835 20.3 40.76 C 20.3 41.122 20.318 41.481 20.348 41.835 L 24.196 41.835 Z"/>
</svg>